<svg width="16" height="16" viewBox="0 0 16 16" fill="none" xmlns="http://www.w3.org/2000/svg">
<rect width="16" height="16" rx="4" fill="#00CCAE"/>
<path d="M5.09835 2.91355C5.24928 2.37347 5.74144 2 6.30222 2H11.75C12.4404 2 13 2.55964 13 3.25V12.75C13 13.4404 12.4404 14 11.75 14H3.64724C2.81977 14 2.22065 13.2105 2.44337 12.4136L5.09835 2.91355Z" fill="white"/>
<path d="M7.5 4.5H10.25C10.3881 4.5 10.5 4.61193 10.5 4.75V10.5" stroke="#222222" stroke-linecap="round" stroke-linejoin="round"/>
<path d="M5.50962 11.75L5.0702 10.6722C5.03668 10.59 5.09716 10.5 5.18595 10.5H11.439C11.5278 10.5 11.5883 10.59 11.5548 10.6722L11.1154 11.75" stroke="#222222" stroke-linecap="round" stroke-linejoin="round"/>
<path d="M6 8.5H8.5" stroke="#222222" stroke-linecap="round" stroke-linejoin="round"/>
<path d="M6.5 6.5H8.5" stroke="#222222" stroke-linecap="round" stroke-linejoin="round"/>
</svg>
