<svg width="24" height="24" viewBox="0 0 24 24" fill="none" xmlns="http://www.w3.org/2000/svg">
<path d="M7.99996 3.75C6.75732 3.75 5.74996 4.75736 5.74996 6V8H4.24996V6C4.24996 3.92893 5.92889 2.25 7.99996 2.25H13.2564C13.9857 2.25 14.6852 2.53973 15.2009 3.05546L18.9445 6.79902C19.2809 7.13541 19.5211 7.54997 19.6475 8H18.0048C17.9682 7.9506 17.9278 7.90367 17.8838 7.85968L14.1403 4.11612C13.9059 3.8817 13.5879 3.75 13.2564 3.75H7.99996Z" fill="#222222"/>
<path d="M4.24996 18H5.74996C5.74996 19.2426 6.75732 20.25 7.99996 20.25H16C17.2426 20.25 18.25 19.2426 18.25 18H19.75C19.75 20.0711 18.071 21.75 16 21.75H7.99996C5.9289 21.75 4.24996 20.0711 4.24996 18Z" fill="#222222"/>
<path fill-rule="evenodd" clip-rule="evenodd" d="M7.35896 10.071C7.04096 9.89695 6.66896 9.80995 6.24296 9.80995H3.01196V16.2H4.46996V13.923H6.24296C6.66896 13.923 7.04096 13.839 7.35896 13.671C7.68296 13.497 7.92896 13.254 8.09696 12.942C8.27096 12.63 8.35796 12.273 8.35796 11.871C8.35796 11.469 8.27096 11.112 8.09696 10.8C7.92896 10.488 7.68296 10.245 7.35896 10.071ZM4.46096 12.717V11.016H5.96396C6.25796 11.016 6.48896 11.091 6.65696 11.241C6.82496 11.391 6.90896 11.601 6.90896 11.871C6.90896 12.141 6.82496 12.351 6.65696 12.501C6.48896 12.645 6.25796 12.717 5.96396 12.717H4.46096Z" fill="#222222"/>
<path d="M14.8768 9.80995H13.4638V11.862C13.4638 12.762 13.4758 13.497 13.4998 14.067C13.3198 13.731 13.0048 13.2 12.5548 12.474L10.9258 9.80995H9.35978V16.2H10.7728V14.301C10.7728 13.389 10.7548 12.564 10.7188 11.826C10.9828 12.33 11.3578 12.972 11.8438 13.752L13.3468 16.2H14.8768V9.80995Z" fill="#222222"/>
<path d="M18.882 12.564V13.788H20.61V13.815C20.61 14.211 20.481 14.523 20.223 14.751C19.965 14.973 19.599 15.084 19.125 15.084C18.585 15.084 18.156 14.907 17.838 14.553C17.52 14.193 17.361 13.671 17.361 12.987C17.361 12.321 17.523 11.814 17.847 11.466C18.177 11.118 18.612 10.944 19.152 10.944C19.476 10.944 19.776 11.007 20.052 11.133C20.334 11.259 20.658 11.481 21.024 11.799L21.942 10.845C21.498 10.413 21.06 10.107 20.628 9.92695C20.202 9.74695 19.71 9.65695 19.152 9.65695C18.48 9.65695 17.895 9.80095 17.397 10.089C16.905 10.377 16.527 10.776 16.263 11.286C16.005 11.79 15.876 12.36 15.876 12.996C15.876 13.644 15.999 14.223 16.245 14.733C16.497 15.237 16.857 15.633 17.325 15.921C17.799 16.209 18.36 16.353 19.008 16.353C19.404 16.353 19.746 16.299 20.034 16.191C20.328 16.077 20.571 15.897 20.763 15.651L20.817 16.2H21.924V12.564H18.882Z" fill="#222222"/>
</svg>
