<?xml version="1.0" encoding="utf-8"?>
<!-- Generator: Adobe Illustrator 26.0.1, SVG Export Plug-In . SVG Version: 6.00 Build 0)  -->
<svg version="1.1" id="Слой_1" xmlns="http://www.w3.org/2000/svg" xmlns:xlink="http://www.w3.org/1999/xlink" x="0px" y="0px"
	 viewBox="0 0 16 16" style="enable-background:new 0 0 16 16;" xml:space="preserve">
<style type="text/css">
	.st0{fill:#2B79C2;}
	.st1{fill:#3B4652;}
</style>
<g>
	<g>
		<path class="st0" d="M9.21,2.72H0.96c-0.53,0-0.95,0.42-0.95,0.94v5.03h10.16V3.66C10.16,3.14,9.74,2.72,9.21,2.72z"/>
		<path class="st1" d="M0.01,9.69c0,0.52,0.42,0.94,0.95,0.94h3.33v2.17H3.35c-0.14,0-0.24,0.11-0.24,0.24s0.1,0.24,0.24,0.24h3.46
			c0.14,0,0.24-0.11,0.24-0.24s-0.1-0.24-0.24-0.24H5.84v-2.17H9.2c0.53,0,0.95-0.42,0.95-0.94V9.17H0L0.01,9.69L0.01,9.69z"/>
	</g>
	<path class="st1" d="M15.54,2.72h-3.55c-0.25,0-0.46,0.2-0.46,0.44v9.47c0,0.24,0.21,0.44,0.46,0.44h3.55
		c0.25,0,0.46-0.2,0.46-0.44V3.16C16,2.92,15.79,2.72,15.54,2.72z M12.47,4.6h2.61v1.42h-2.61V4.6z M13.77,11.31
		c-0.41,0-0.75-0.33-0.75-0.74s0.33-0.74,0.75-0.74c0.42,0,0.75,0.33,0.75,0.74S14.18,11.31,13.77,11.31z M15.06,7.07h-2.61
		c-0.14,0-0.24-0.11-0.24-0.24s0.1-0.24,0.24-0.24h2.61c0.14,0,0.24,0.11,0.24,0.24S15.2,7.07,15.06,7.07z"/>
</g>
</svg>
