<?xml version="1.0" encoding="utf-8"?>
<!-- Generator: Adobe Illustrator 26.0.1, SVG Export Plug-In . SVG Version: 6.00 Build 0)  -->
<svg version="1.1" id="Слой_1" xmlns="http://www.w3.org/2000/svg" xmlns:xlink="http://www.w3.org/1999/xlink" x="0px" y="0px"
	 viewBox="0 0 16 16" style="enable-background:new 0 0 16 16;" xml:space="preserve">
<style type="text/css">
	.st0{fill:#FEBC00;}
	.st1{fill:#F74E0C;}
	.st2{fill:#FDFEFF;}
	.st3{fill:#EDAA03;}
	.st4{fill:#DFEAEF;}
	.st5{fill:#CC2600;}
</style>
<g id="_21_Certificate">
	<path class="st0" d="M14.77,12.5H1.23C1.1,12.5,1,12.39,1,12.25v-11C1,1.11,1.1,1,1.23,1h13.53C14.9,1,15,1.11,15,1.25v11
		C15,12.39,14.9,12.5,14.77,12.5z"/>
	<path class="st1" d="M6.5,12l-1.35,1.42c-0.07,0.07-0.09,0.17-0.06,0.27c0.03,0.09,0.1,0.16,0.19,0.18l0.72,0.15l0.15,0.77
		c0.02,0.1,0.09,0.17,0.17,0.2c0.09,0.03,0.18,0,0.25-0.07l1.53-1.62C7.42,13.16,6.82,12.68,6.5,12z"/>
	<path class="st1" d="M9.5,12l1.35,1.42c0.07,0.07,0.09,0.17,0.06,0.27c-0.03,0.09-0.1,0.16-0.19,0.18l-0.72,0.15l-0.15,0.77
		c-0.02,0.1-0.09,0.17-0.17,0.2c-0.09,0.03-0.18,0-0.25-0.07L7.88,13.3C8.58,13.16,9.18,12.68,9.5,12z"/>
	<path class="st2" d="M13.83,11.5H2.17c-0.13,0-0.23-0.11-0.23-0.25v-9C1.93,2.11,2.04,2,2.17,2h11.67c0.13,0,0.23,0.11,0.23,0.25v9
		C14.07,11.39,13.96,11.5,13.83,11.5z"/>
	<path class="st3" d="M5.45,11.5c0.03,0.35,0.12,0.69,0.27,1h4.57c0.15-0.31,0.24-0.65,0.27-1H5.45z"/>
	<path class="st4" d="M10.57,11.25C10.57,9.73,9.42,8.5,8,8.5s-2.57,1.23-2.57,2.75c0,0.08,0,0.17,0.01,0.25h5.11
		C10.56,11.42,10.57,11.33,10.57,11.25z"/>
	<path class="st4" d="M2.4,11.25v-9C2.4,2.11,2.5,2,2.63,2H2.17C2.04,2,1.93,2.11,1.93,2.25v9c0,0.14,0.1,0.25,0.23,0.25h0.47
		C2.5,11.5,2.4,11.39,2.4,11.25z"/>
	<path class="st1" d="M8,13.5c-1.16,0-2.1-1.01-2.1-2.25S6.84,9,8,9s2.1,1.01,2.1,2.25C10.1,12.49,9.16,13.5,8,13.5z"/>
	<path class="st5" d="M8.47,13c-1.16,0-2.1-1-2.1-2.24c0-0.48,0.14-0.94,0.4-1.33c-0.94,0.73-1.15,2.13-0.47,3.14
		s1.99,1.23,2.93,0.51c0.18-0.14,0.34-0.31,0.47-0.51C9.34,12.85,8.91,13,8.47,13z"/>
	<ellipse class="st0" cx="8" cy="11.25" rx="0.93" ry="1"/>
	<path class="st3" d="M8.47,11.75c-0.52,0-0.93-0.45-0.93-1c0-0.14,0.03-0.28,0.08-0.41c-0.47,0.23-0.68,0.82-0.47,1.32
		c0.21,0.5,0.76,0.73,1.23,0.5c0.21-0.1,0.38-0.28,0.47-0.5C8.73,11.72,8.6,11.75,8.47,11.75z"/>
	<rect x="4.73" y="4" class="st4" width="6.53" height="0.5"/>
	<rect x="4.73" y="5" class="st4" width="6.53" height="0.5"/>
	<rect x="4.73" y="6" class="st4" width="6.53" height="0.5"/>
	<rect x="8" y="7" class="st4" width="3.27" height="0.5"/>
	<rect x="9.4" y="8" class="st4" width="1.87" height="0.5"/>
</g>
</svg>
