<?xml version="1.0" encoding="utf-8"?>
<!-- Generator: Adobe Illustrator 26.0.1, SVG Export Plug-In . SVG Version: 6.00 Build 0)  -->
<svg version="1.1" id="Слой_1" xmlns="http://www.w3.org/2000/svg" xmlns:xlink="http://www.w3.org/1999/xlink" x="0px" y="0px"
	 viewBox="0 0 16 16" style="enable-background:new 0 0 16 16;" xml:space="preserve">
<style type="text/css">
	.st0{fill:#95CC29;}
	.st1{fill:#666666;}
	.st2{fill:none;}
</style>
<g id="Layer_43">
	<g>
		<g>
			<path class="st0" d="M12.81,8c-1.21,0-2.19,0.98-2.19,2.19c0,0.28,0.06,0.55,0.15,0.8L8,13.76V15h1.24l2.78-2.78
				c0.25,0.1,0.51,0.15,0.8,0.15c1.21,0,2.19-0.98,2.19-2.19S14.02,8,12.81,8z M12.81,9.75c-0.24,0-0.44-0.2-0.44-0.44
				s0.2-0.44,0.44-0.44c0.24,0,0.44,0.2,0.44,0.44S13.05,9.75,12.81,9.75z"/>
		</g>
		<g>
			<path class="st1" d="M6.69,1C4.03,1,1.88,3.15,1.88,5.81v1.39C1,7.39,1,7.87,1,8.44v5.25C1,14.41,1.59,15,2.31,15h4.81v-0.88
				H2.31c-0.24,0-0.44-0.2-0.44-0.44V8.44C1.88,8.2,2.07,8,2.31,8h8.73l0.13,0.01l0-0.03c0.07-0.02,0.14-0.05,0.19-0.1
				c0.08-0.08,0.13-0.19,0.13-0.31V5.81C11.5,3.15,9.35,1,6.69,1z M10.62,7.12H2.75V5.81c0-1.09,0.44-2.07,1.15-2.78
				c0.71-0.71,1.7-1.15,2.78-1.15c1.09,0,2.07,0.44,2.78,1.15c0.71,0.71,1.15,1.7,1.15,2.78V7.12z"/>
			<path class="st1" d="M6.69,8.88c-0.72,0-1.31,0.59-1.31,1.31c0,0.57,0,1.05,0.88,1.23v1.39c0,0.24,0.2,0.44,0.44,0.44
				s0.44-0.2,0.44-0.44v-1.39C8,11.24,8,10.76,8,10.19C8,9.46,7.41,8.88,6.69,8.88z M6.69,10.62c-0.24,0-0.44-0.2-0.44-0.44
				c0-0.24,0.2-0.44,0.44-0.44c0.24,0,0.44,0.2,0.44,0.44C7.12,10.43,6.93,10.62,6.69,10.62z"/>
		</g>
	</g>
	<rect x="1" y="1" class="st2" width="14" height="14"/>
</g>
<g id="Layer_1">
</g>
</svg>
