<?xml version="1.0" encoding="utf-8"?>
<!-- Generator: Adobe Illustrator 26.0.1, SVG Export Plug-In . SVG Version: 6.00 Build 0)  -->
<svg version="1.1" id="Слой_1" xmlns="http://www.w3.org/2000/svg" xmlns:xlink="http://www.w3.org/1999/xlink" x="0px" y="0px"
	 viewBox="0 0 16 16" style="enable-background:new 0 0 16 16;" xml:space="preserve">
<style type="text/css">
	.st0{fill:#2B79C2;}
	.st1{fill:#3B4652;}
	.st2{fill:#FFFFFF;stroke:#2B79C2;stroke-width:0.5;stroke-miterlimit:10;}
</style>
<g>
	<path class="st0" d="M9.2,2.7H1C0.4,2.7,0,3.1,0,3.7v5h10.2v-5C10.2,3.1,9.7,2.7,9.2,2.7z"/>
	<path class="st1" d="M0,9.7c0,0.5,0.4,0.9,0.9,0.9h3.3v2.2H3.3c-0.1,0-0.2,0.1-0.2,0.2s0.1,0.2,0.2,0.2h3.5C6.9,13.3,7,13.2,7,13
		s-0.1-0.2-0.2-0.2h-1v-2.2h3.4c0.5,0,0.9-0.4,0.9-0.9V9.2H0L0,9.7L0,9.7z"/>
</g>
<ellipse class="st2" cx="10.5" cy="10.4" rx="5.2" ry="5.3"/>
<path class="st1" d="M12.7,7.6l0.6,0.6l-1.7,1.9l1.7,1.9l-0.6,0.6l-2.2-2.5L12.7,7.6z"/>
<path class="st1" d="M8.1,13.8l-0.6-0.6l1.7-1.8L7.6,9.6L8.1,9l2.3,2.4L8.1,13.8z"/>
</svg>
