<svg id="Слой_1" data-name="Слой 1" xmlns="http://www.w3.org/2000/svg" viewBox="0 0 16 16"><defs><style>.cls-1{fill:#2b79c2;}.cls-2{fill:#3b4652;}.cls-3{fill:#ed1111;}</style></defs><path class="cls-1" d="M7.24,0H.76A.73.73,0,0,0,0,.71V4.52H8V.71A.74.74,0,0,0,7.24,0Z"/><path class="cls-2" d="M0,5.28A.73.73,0,0,0,.76,6H3.37V7.64H2.64a.18.18,0,1,0,0,.36H5.36a.18.18,0,1,0,0-.36H4.59V6H7.24A.73.73,0,0,0,8,5.28V4.89H0v.39Z"/><path class="cls-1" d="M15.24,8H8.76A.73.73,0,0,0,8,8.71v3.81h8V8.71A.74.74,0,0,0,15.24,8Z"/><path class="cls-2" d="M8,13.28a.73.73,0,0,0,.75.71h2.61v1.65h-.73a.18.18,0,1,0,0,.36h2.72a.18.18,0,1,0,0-.36h-.77V14h2.65a.73.73,0,0,0,.74-.71v-.39H8v.39Z"/><rect class="cls-3" x="3" y="9" width="2" height="6" transform="translate(-7.74 7.28) rotate(-49.65)"/><circle class="cls-3" cx="1.71" cy="10.06" r="1"/><circle class="cls-3" cx="6.29" cy="13.94" r="1"/><rect class="cls-3" x="2.92" y="9.19" width="2" height="6" transform="translate(11.25 1.69) rotate(52.74)"/><circle class="cls-3" cx="6.31" cy="10.37" r="1"/><circle class="cls-3" cx="1.54" cy="14.01" r="1"/></svg>