<svg id="Слой_1" data-name="Слой 1" xmlns="http://www.w3.org/2000/svg" viewBox="0 0 16 16"><defs><style>.cls-1{fill:#2b79c2;}.cls-2{fill:#3b4652;}.cls-3{fill:#169309;}</style></defs><path class="cls-1" d="M7.24,0H.76A.73.73,0,0,0,0,.71V4.52H8V.71A.74.74,0,0,0,7.24,0Z" transform="translate(0)"/><path class="cls-2" d="M0,5.28A.73.73,0,0,0,.76,6H3.37V7.64H2.64a.18.18,0,1,0,0,.36H5.36a.18.18,0,1,0,0-.36H4.59V6H7.24A.73.73,0,0,0,8,5.28V4.89H0v.39Z" transform="translate(0)"/><path class="cls-1" d="M15.24,8H8.76A.73.73,0,0,0,8,8.71v3.81h8V8.71A.74.74,0,0,0,15.24,8Z" transform="translate(0)"/><path class="cls-2" d="M8,13.28a.73.73,0,0,0,.75.71h2.61v1.65h-.73a.18.18,0,1,0,0,.36h2.72a.18.18,0,1,0,0-.36h-.77V14h2.65a.73.73,0,0,0,.74-.71v-.39H8v.39Z" transform="translate(0)"/><polygon class="cls-3" points="3.89 13.85 2.53 14.83 0.11 12.15 1.47 11.17 3.89 13.85"/><ellipse class="cls-3" cx="0.79" cy="11.66" rx="0.84" ry="0.59" transform="translate(-5.58 1.86) rotate(-29.14)"/><ellipse class="cls-3" cx="3.21" cy="14.34" rx="0.84" ry="0.59" transform="translate(-6.58 3.38) rotate(-29.14)"/><polygon class="cls-3" points="5.72 9.2 6.78 10.98 3.61 14.75 2.55 12.97 5.72 9.2"/><ellipse class="cls-3" cx="3.08" cy="13.86" rx="0.73" ry="1.1" transform="translate(-2.86 0.96) rotate(-12.19)"/><ellipse class="cls-3" cx="6.25" cy="10.09" rx="0.73" ry="1.1" transform="translate(-1.99 1.55) rotate(-12.19)"/></svg>