<?xml version="1.0" encoding="utf-8"?>
<!-- Generator: Adobe Illustrator 26.0.1, SVG Export Plug-In . SVG Version: 6.00 Build 0)  -->
<svg version="1.1" id="Слой_1" xmlns="http://www.w3.org/2000/svg" xmlns:xlink="http://www.w3.org/1999/xlink" x="0px" y="0px"
	 viewBox="0 0 16 16" style="enable-background:new 0 0 16 16;" xml:space="preserve">
<style type="text/css">
	.st0{fill:#2B79C2;}
</style>
<path class="st0" d="M13.21,8c0-0.26-0.03-0.52-0.06-0.77L15,6.15l-1.92-3.32L11.24,3.9c-0.4-0.32-0.85-0.58-1.33-0.77V1H6.09v2.14
	C5.62,3.33,5.2,3.58,4.8,3.87L2.96,2.78l-1.94,3.3l1.84,1.09C2.82,7.45,2.79,7.72,2.79,8c0,0.26,0.03,0.52,0.06,0.77L1,9.83
	l1.91,3.32l1.85-1.06c0.4,0.32,0.85,0.58,1.33,0.77V15h3.83v-2.14c0.47-0.19,0.89-0.44,1.29-0.74l1.84,1.09l1.95-3.3l-1.84-1.09
	C13.18,8.55,13.21,8.28,13.21,8 M7.99,10.55c-1.4,0-2.54-1.15-2.54-2.56s1.14-2.56,2.54-2.56s2.54,1.15,2.54,2.56
	C10.54,9.41,9.41,10.55,7.99,10.55"/>
</svg>
