<?xml version="1.0" encoding="utf-8"?>
<!-- Generator: Adobe Illustrator 26.0.1, SVG Export Plug-In . SVG Version: 6.00 Build 0)  -->
<svg version="1.1" id="Слой_1" xmlns="http://www.w3.org/2000/svg" xmlns:xlink="http://www.w3.org/1999/xlink" x="0px" y="0px"
	 viewBox="0 0 16 16" style="enable-background:new 0 0 16 16;" xml:space="preserve">
<style type="text/css">
	.st0{fill:#3B4652;}
	.st1{fill:#2B79C2;}
</style>
<g>
	<path class="st0" d="M13.35,0H2.65C2.29,0,2,0.29,2,0.65v2.33c0,0.36,0.29,0.65,0.65,0.65h5.11v1.1H2.65C2.29,4.73,2,5.02,2,5.38
		v2.33c0,0.36,0.29,0.65,0.65,0.65h5.11v1.1H2.65C2.29,9.46,2,9.75,2,10.11v2.33c0,0.36,0.29,0.65,0.65,0.65h5.11v0.6
		c0.08-0.01,0.15-0.02,0.24-0.02c0.08,0,0.16,0.01,0.24,0.02v-0.6h5.11c0.36,0,0.65-0.29,0.65-0.65v-2.33
		c0-0.36-0.29-0.65-0.65-0.65H8.24v-1.1h5.11c0.36,0,0.65-0.29,0.65-0.65V5.38c0-0.36-0.29-0.65-0.65-0.65H8.24v-1.1h5.11
		c0.36,0,0.65-0.29,0.65-0.65V0.65C14,0.29,13.71,0,13.35,0z M3.97,11.5H3.03c-0.13,0-0.24-0.1-0.24-0.23s0.1-0.23,0.24-0.23h0.95
		c0.13,0,0.24,0.1,0.24,0.23S4.1,11.5,3.97,11.5z M5.65,11.5H4.7c-0.13,0-0.24-0.1-0.24-0.23s0.1-0.23,0.24-0.23h0.95
		c0.13,0,0.24,0.1,0.24,0.23S5.78,11.5,5.65,11.5z M12.21,10.51c0.42,0,0.76,0.34,0.76,0.76s-0.34,0.76-0.76,0.76
		s-0.76-0.34-0.76-0.76S11.79,10.51,12.21,10.51z M3.97,6.78H3.03c-0.13,0-0.24-0.1-0.24-0.23c0-0.13,0.1-0.23,0.24-0.23h0.95
		c0.13,0,0.24,0.1,0.24,0.23C4.21,6.67,4.1,6.78,3.97,6.78z M5.65,6.78H4.7c-0.13,0-0.24-0.1-0.24-0.23c0-0.13,0.1-0.23,0.24-0.23
		h0.95c0.13,0,0.24,0.1,0.24,0.23C5.88,6.67,5.78,6.78,5.65,6.78z M12.21,5.78c0.42,0,0.76,0.34,0.76,0.76
		c0,0.42-0.34,0.76-0.76,0.76s-0.76-0.34-0.76-0.76C11.45,6.12,11.79,5.78,12.21,5.78z M3.97,2.05H3.03c-0.13,0-0.24-0.1-0.24-0.23
		s0.1-0.23,0.24-0.23h0.95c0.13,0,0.24,0.1,0.24,0.23S4.1,2.05,3.97,2.05z M5.65,2.05H4.7c-0.13,0-0.24-0.1-0.24-0.23
		s0.1-0.23,0.24-0.23h0.95c0.13,0,0.24,0.1,0.24,0.23S5.78,2.05,5.65,2.05z M12.21,2.57c-0.42,0-0.76-0.34-0.76-0.76
		s0.34-0.76,0.76-0.76s0.76,0.34,0.76,0.76C12.97,2.24,12.63,2.57,12.21,2.57z"/>
	<ellipse class="st1" cx="8" cy="15.07" rx="0.94" ry="0.93"/>
	<path class="st1" d="M13.06,14.14c-0.44,0-0.8,0.3-0.91,0.7c-0.01,0-0.02,0-0.03,0H9.38c0.01,0.08,0.02,0.15,0.02,0.23
		c0,0.08-0.01,0.16-0.02,0.23h2.74c0.01,0,0.02,0,0.03,0c0.1,0.4,0.47,0.7,0.91,0.7c0.52,0,0.94-0.42,0.94-0.93
		C14,14.56,13.58,14.14,13.06,14.14z"/>
	<path class="st1" d="M3.88,14.83c-0.01,0-0.02,0-0.03,0c-0.1-0.4-0.47-0.7-0.91-0.7C2.42,14.14,2,14.56,2,15.07
		C2,15.58,2.42,16,2.94,16c0.44,0,0.8-0.3,0.91-0.7c0.01,0,0.02,0,0.03,0h2.74c-0.01-0.08-0.02-0.15-0.02-0.23
		c0-0.08,0.01-0.16,0.02-0.23H3.88z"/>
</g>
</svg>
