<svg class="svg-icon" style="width: 1em; height: 1em;vertical-align: middle;fill: currentColor;overflow: hidden;" viewBox="0 0 1024 1024" version="1.1" xmlns="http://www.w3.org/2000/svg"><path d="M511.573333 85.333333C276.053333 85.333333 85.333333 276.48 85.333333 512c0 235.52 190.72 426.666667 426.24 426.666667C747.52 938.666667 938.666667 747.52 938.666667 512 938.666667 276.48 747.52 85.333333 511.573333 85.333333zM512 853.333333c-188.586667 0-341.333333-152.746667-341.333333-341.333333 0-188.586667 152.746667-341.333333 341.333333-341.333333s341.333333 152.746667 341.333333 341.333333C853.333333 700.586667 700.586667 853.333333 512 853.333333zM533.333333 298.666667 469.333333 298.666667l0 256 224 134.4L725.333333 636.586667l-192-113.92L533.333333 298.666667z"  /></svg>